<svg xmlns="http://www.w3.org/2000/svg" viewBox="0 0 100 100" width="100%" height="100%">
  <defs>
    <linearGradient id="primaryGradient" x1="0%" y1="0%" x2="100%" y2="100%">
      <stop offset="0%" stop-color="#4f46e5" /> <!-- From Primary (Indigo-600) -->
      <stop offset="100%" stop-color="#2563eb" /> <!-- To Blue-600 -->
    </linearGradient>
  </defs>
  
  <!-- Rounded Gradient Background -->
  <rect x="0" y="0" width="100" height="100" rx="24" fill="url(#primaryGradient)" />
  
  <!-- Lucide Radar Icon inside, scaled and centered -->
  <g transform="translate(25, 25) scale(2.083)" fill="none" stroke="#ffffff" stroke-width="2.5" stroke-linecap="round" stroke-linejoin="round">
    <path d="M19.07 4.93A10 10 0 0 0 6.99 3.34" />
    <path d="M4 6h.01" />
    <path d="M2.29 9.62A10 10 0 1 0 21.31 8.35" />
    <path d="M16.24 7.76A6 6 0 1 0 8.23 16.67" />
    <path d="M12 18h.01" />
    <path d="M17.99 11.66A6 6 0 0 1 15.77 16.67" />
    <circle cx="12" cy="12" r="2" />
    <path d="m13.41 10.59 5.66-5.66" />
  </g>
</svg>
